<svg
  width="22"
  height="22"
  viewBox="0 0 22 22"
  fill="none"
  xmlns="http://www.w3.org/2000/svg"
>
<path
    d="M15.5827 1.83337H6.41602C5.68667 1.83337 4.9872 2.12311 4.47147 2.63883C3.95575 3.15456 3.66602 3.85403 3.66602 4.58337V18.8742C3.6718 19.1172 3.72584 19.3566 3.82498 19.5784C3.92412 19.8003 4.06639 20.0003 4.24352 20.1667C4.58537 20.4971 5.04223 20.6819 5.51768 20.6819C5.99314 20.6819 6.44999 20.4971 6.79185 20.1667L10.8893 16.0784L10.9993 16.0325L11.1093 16.0784L15.2068 20.1667C15.4632 20.4216 15.7892 20.5949 16.1438 20.665C16.4984 20.7351 16.8659 20.6988 17.1999 20.5607C17.534 20.4226 17.8197 20.1888 18.0213 19.8887C18.2228 19.5886 18.3312 19.2357 18.3327 18.8742V4.58337C18.3327 3.85403 18.043 3.15456 17.5272 2.63883C17.0115 2.12311 16.312 1.83337 15.5827 1.83337ZM16.4993 18.8742L12.411 14.7767C12.034 14.4072 11.5272 14.2002 10.9993 14.2002C10.4715 14.2002 9.96466 14.4072 9.58768 14.7767L5.49935 18.865V7.33337H16.4993V18.8742ZM16.4993 5.50004H5.49935V4.58337C5.49935 4.34026 5.59593 4.1071 5.76783 3.93519C5.93974 3.76328 6.1729 3.66671 6.41602 3.66671H15.5827C15.8258 3.66671 16.059 3.76328 16.2309 3.93519C16.4028 4.1071 16.4993 4.34026 16.4993 4.58337V5.50004Z"
    fill="#FF8E42"
  />
</svg>
