<svg
  width="24"
  height="24"
  viewBox="0 0 24 24"
  fill="none"
  xmlns="http://www.w3.org/2000/svg"
>
<path
    d="M19 4H5C4.20435 4 3.44129 4.31607 2.87868 4.87868C2.31607 5.44129 2 6.20435 2 7V17C2 17.7956 2.31607 18.5587 2.87868 19.1213C3.44129 19.6839 4.20435 20 5 20H19C19.7956 20 20.5587 19.6839 21.1213 19.1213C21.6839 18.5587 22 17.7956 22 17V7C22 6.20435 21.6839 5.44129 21.1213 4.87868C20.5587 4.31607 19.7956 4 19 4ZM20 17C20 17.2652 19.8946 17.5196 19.7071 17.7071C19.5196 17.8946 19.2652 18 19 18H5C4.73478 18 4.48043 17.8946 4.29289 17.7071C4.10536 17.5196 4 17.2652 4 17V7C4 6.73478 4.10536 6.48043 4.29289 6.29289C4.48043 6.10536 4.73478 6 5 6H19C19.2652 6 19.5196 6.10536 19.7071 6.29289C19.8946 6.48043 20 6.73478 20 7V17ZM15.62 10.27L11.69 8C11.3861 7.82455 11.0414 7.73214 10.6905 7.73205C10.3396 7.73196 9.99487 7.82419 9.69089 7.99949C9.38691 8.17478 9.1344 8.42697 8.95872 8.73072C8.78303 9.03447 8.69036 9.3791 8.69 9.73V14.27C8.68973 14.5387 8.74361 14.8047 8.84842 15.0521C8.95322 15.2995 9.10681 15.5233 9.3 15.71C9.61285 16.0113 10.0153 16.2026 10.4465 16.2549C10.8777 16.3072 11.3142 16.2177 11.69 16L15.62 13.73C15.9231 13.5542 16.1747 13.3018 16.3495 12.9982C16.5244 12.6946 16.6165 12.3504 16.6165 12C16.6165 11.6496 16.5244 11.3054 16.3495 11.0018C16.1747 10.6982 15.9231 10.4458 15.62 10.27ZM14.62 12L10.69 14.27V9.73L14.62 12Z"
    fill="#FFB356"
  />
</svg>
