<svg
  width="34"
  height="32"
  viewBox="0 0 34 32"
  fill="none"
  xmlns="http://www.w3.org/2000/svg"
>
<g filter="url(#filter0_d_647_15496)">
<path
      d="M27.8886 8.84073C25.4799 7.78795 22.0521 7.17383 18.2537 7.17383C10.935 7.17383 5.00586 9.54258 5.00586 12.4377C5.00586 14.3678 6.30285 16.3857 9.4527 17.263C11.3982 17.7894 13.529 17.7016 15.3818 17.0875C17.42 16.4734 19.1802 15.3329 20.8477 14.1046C22.1447 13.1396 23.8123 12.5255 25.5725 12.5255H26.7768C29.1855 12.4377 29.9267 9.71805 27.8886 8.84073Z"
      stroke="#8F8F8F"
      stroke-width="1.5"
      stroke-miterlimit="10"
      stroke-linecap="round"
      stroke-linejoin="round"
    />
<path
      d="M12.8536 14.4781C14.8761 14.4781 16.5157 13.7773 16.5157 12.9129C16.5157 12.0484 14.8761 11.3477 12.8536 11.3477C10.831 11.3477 9.19141 12.0484 9.19141 12.9129C9.19141 13.7773 10.831 14.4781 12.8536 14.4781Z"
      stroke="#8F8F8F"
      stroke-width="1.5"
      stroke-miterlimit="10"
      stroke-linecap="round"
      stroke-linejoin="round"
    />
<path
      d="M29.0714 11.3477V15.8335C28.9789 16.7306 28.1458 17.6278 26.85 17.6278H25.6467C23.8881 17.6278 22.1294 18.2558 20.9262 19.2427C19.2601 20.5884 17.5014 21.665 15.4651 22.293C13.5214 22.921 11.4851 23.0108 9.54129 22.4725C6.3017 21.665 5.00586 19.6015 5.00586 17.6278V13.142"
      stroke="#8F8F8F"
      stroke-width="1.5"
      stroke-miterlimit="10"
      stroke-linecap="round"
      stroke-linejoin="round"
    />
</g>
<defs>
<filter
      id="filter0_d_647_15496"
      x="-1"
      y="0"
      width="36.0762"
      height="36"
      filterUnits="userSpaceOnUse"
      color-interpolation-filters="sRGB"
    >
<feFlood flood-opacity="0" result="BackgroundImageFix" />
<feColorMatrix
        in="SourceAlpha"
        type="matrix"
        values="0 0 0 0 0 0 0 0 0 0 0 0 0 0 0 0 0 0 127 0"
        result="hardAlpha"
      />
<feOffset dy="4" />
<feGaussianBlur stdDeviation="2" />
<feComposite in2="hardAlpha" operator="out" />
<feColorMatrix
        type="matrix"
        values="0 0 0 0 0 0 0 0 0 0 0 0 0 0 0 0 0 0 0.25 0"
      />
<feBlend
        mode="normal"
        in2="BackgroundImageFix"
        result="effect1_dropShadow_647_15496"
      />
<feBlend
        mode="normal"
        in="SourceGraphic"
        in2="effect1_dropShadow_647_15496"
        result="shape"
      />
</filter>
</defs>
</svg>
