<svg
  width="28"
  height="28"
  viewBox="0 0 28 28"
  fill="none"
  xmlns="http://www.w3.org/2000/svg"
>
<path
    d="M23.1 7.2624C22.925 6.2999 23.1875 5.3374 23.5375 4.3749C23.625 4.2874 23.625 4.1124 23.625 3.9374C23.625 3.2374 23.0125 2.6249 22.3125 2.6249C22.1375 2.6249 21.9625 2.6249 21.875 2.7124C21 3.0624 20.0375 3.2374 19.1625 3.0624C15.4875 2.4499 12.6 2.4499 8.925 3.0624C7.9625 3.2374 7 3.0624 6.125 2.7124C6.0375 2.6249 5.8625 2.6249 5.6875 2.6249C4.9875 2.6249 4.375 3.2374 4.375 3.9374C4.375 4.1124 4.375 4.2874 4.4625 4.3749C4.8125 5.3374 4.9875 6.2999 4.9 7.2624C4.2 12.2499 4.2 15.7499 4.9 20.7374C5.075 21.6999 4.8125 22.6624 4.4625 23.6249C4.375 23.7124 4.375 23.8874 4.375 24.0624C4.375 24.7624 4.9875 25.3749 5.6875 25.3749C5.8625 25.3749 6.0375 25.3749 6.125 25.2874C7 24.9374 7.9625 24.7624 8.8375 24.9374C12.5125 25.5499 15.4 25.5499 19.075 24.9374C20.0375 24.7624 20.9125 25.0249 21.7875 25.2874C21.9625 25.3749 22.05 25.3749 22.225 25.3749C22.925 25.3749 23.5375 24.7624 23.5375 24.0624C23.5375 23.8874 23.5375 23.7124 23.45 23.6249C23.1 22.6624 22.925 21.6999 23.0125 20.7374C23.8 15.7499 23.8 12.2499 23.1 7.2624Z"
    stroke="#8F8F8F"
    stroke-width="1.5"
    stroke-miterlimit="10"
    stroke-linecap="round"
    stroke-linejoin="round"
  />
<path
    d="M14 16.625C11.1125 16.625 8.75 14.2625 8.75 11.375C11.6375 11.375 14 13.7375 14 16.625Z"
    stroke="#8F8F8F"
    stroke-width="1.5"
    stroke-miterlimit="10"
    stroke-linecap="round"
    stroke-linejoin="round"
  />
<path
    d="M14 16.625C16.8875 16.625 19.25 14.2625 19.25 11.375C16.3625 11.375 14 13.7375 14 16.625Z"
    stroke="#8F8F8F"
    stroke-width="1.5"
    stroke-miterlimit="10"
    stroke-linecap="round"
    stroke-linejoin="round"
  />
<path
    d="M13.9996 14.175C16.0121 12.1625 16.0121 8.83755 13.9996 6.73755C11.9871 8.83755 11.9871 12.1625 13.9996 14.175Z"
    stroke="#8F8F8F"
    stroke-width="1.5"
    stroke-miterlimit="10"
    stroke-linecap="round"
    stroke-linejoin="round"
  />
<path
    d="M14 21C11.1125 21 8.75 18.6375 8.75 15.75C11.6375 15.75 14 18.1125 14 21Z"
    stroke="#8F8F8F"
    stroke-width="1.5"
    stroke-miterlimit="10"
    stroke-linecap="round"
    stroke-linejoin="round"
  />
<path
    d="M14 21C16.8875 21 19.25 18.6375 19.25 15.75C16.3625 15.75 14 18.1125 14 21Z"
    stroke="#8F8F8F"
    stroke-width="1.5"
    stroke-miterlimit="10"
    stroke-linecap="round"
    stroke-linejoin="round"
  />
</svg>
