<svg
  width="15"
  height="15"
  viewBox="0 0 15 15"
  fill="none"
  xmlns="http://www.w3.org/2000/svg"
>
<path
    d="M13.5688 12.6813L10.8188 9.9375C11.5052 9.06451 11.8774 7.98557 11.875 6.875C11.875 5.8861 11.5818 4.9194 11.0323 4.09715C10.4829 3.27491 9.70205 2.63404 8.78842 2.2556C7.87479 1.87717 6.86946 1.77815 5.89955 1.97108C4.92965 2.164 4.03873 2.64021 3.33947 3.33947C2.64021 4.03873 2.164 4.92965 1.97108 5.89955C1.77815 6.86946 1.87717 7.87479 2.2556 8.78842C2.63404 9.70205 3.27491 10.4829 4.09715 11.0323C4.9194 11.5818 5.8861 11.875 6.875 11.875C7.98557 11.8774 9.06451 11.5052 9.9375 10.8188L12.6813 13.5688C12.7989 13.6864 12.9586 13.7526 13.125 13.7526C13.2914 13.7526 13.4511 13.6864 13.5688 13.5688C13.6864 13.4511 13.7526 13.2914 13.7526 13.125C13.7526 12.9586 13.6864 12.7989 13.5688 12.6813ZM4.225 9.55625C3.60428 8.94927 3.2134 8.14571 3.11904 7.28268C3.02468 6.41965 3.2327 5.55062 3.70759 4.82384C4.18248 4.09707 4.89484 3.55759 5.72311 3.29743C6.55139 3.03728 7.44428 3.07257 8.24944 3.39729C9.05459 3.72202 9.72214 4.31605 10.1382 5.07804C10.5542 5.84003 10.693 6.72277 10.5308 7.57566C10.3686 8.42855 9.91553 9.19874 9.24884 9.75484C8.58214 10.3109 7.74315 10.6185 6.875 10.625C5.88078 10.6241 4.92759 10.2285 4.225 9.525V9.55625Z"
    fill="#5B5B5B"
  />
</svg>
