<svg
  width="24"
  height="24"
  viewBox="0 0 24 24"
  fill="none"
  xmlns="http://www.w3.org/2000/svg"
>
<path
    d="M19.2896 4.88L19.1196 4.71C18.5571 4.1482 17.7946 3.83264 16.9996 3.83264C16.2046 3.83264 15.4421 4.1482 14.8796 4.71L5.28964 14.29C5.16173 14.42 5.07182 14.5826 5.02964 14.76L4.02964 18.76C3.98203 18.929 3.97977 19.1076 4.0231 19.2778C4.06644 19.448 4.15382 19.6038 4.27648 19.7295C4.39913 19.8552 4.55272 19.9464 4.7218 19.9939C4.89088 20.0413 5.06948 20.0435 5.23964 20L9.23964 19C9.41708 18.9578 9.57961 18.8679 9.70964 18.74L19.2896 9.15C19.8514 8.5875 20.167 7.825 20.167 7.03C20.167 6.235 19.8514 5.4725 19.2896 4.91V4.88ZM8.48964 17.1L6.36964 17.63L6.89964 15.51L13.4796 8.93L15.0696 10.52L8.48964 17.1ZM17.8796 7.71L16.4796 9.1L14.8996 7.52L16.2896 6.12C16.3826 6.02627 16.4932 5.95188 16.6151 5.90111C16.7369 5.85034 16.8676 5.8242 16.9996 5.8242C17.1316 5.8242 17.2624 5.85034 17.3842 5.90111C17.5061 5.95188 17.6167 6.02627 17.7096 6.12L17.8796 6.29C17.9734 6.38296 18.0478 6.49357 18.0985 6.61542C18.1493 6.73728 18.1754 6.86799 18.1754 7C18.1754 7.13201 18.1493 7.26272 18.0985 7.38458C18.0478 7.50644 17.9734 7.61704 17.8796 7.71Z"
    fill="#A5A5A5"
  />
</svg>
