<svg
  width="24"
  height="24"
  viewBox="0 0 24 24"
  fill="none"
  xmlns="http://www.w3.org/2000/svg"
>
<path
    d="M3.64784 18.5374L7.64784 17.5374C7.82528 17.4952 7.98781 17.4053 8.11784 17.2774L17.6978 7.68739C18.2596 7.12488 18.5752 6.36239 18.5752 5.56739C18.5752 4.77238 18.2596 4.00989 17.6978 3.44738L17.5278 3.27738C16.9653 2.71558 16.2028 2.40002 15.4078 2.40002C14.6128 2.40002 13.8503 2.71558 13.2878 3.27738L3.69784 12.8274C3.56993 12.9574 3.48002 13.1199 3.43784 13.2974L2.43784 17.2974C2.39023 17.4664 2.38798 17.645 2.43131 17.8152C2.47464 17.9854 2.56203 18.1412 2.68468 18.2669C2.80733 18.3926 2.96092 18.4838 3.13 18.5312C3.29908 18.5787 3.47768 18.5808 3.64784 18.5374ZM15.4078 4.36738C15.5394 4.36662 15.6699 4.39185 15.7917 4.44161C15.9136 4.49138 16.0244 4.5647 16.1178 4.65738L16.2878 4.82738C16.3816 4.92035 16.456 5.03095 16.5067 5.15281C16.5575 5.27467 16.5836 5.40537 16.5836 5.53738C16.5836 5.6694 16.5575 5.8001 16.5067 5.92196C16.456 6.04382 16.3816 6.15442 16.2878 6.24739L14.8878 7.63738L13.3078 6.05738L14.6978 4.65738C14.7913 4.5647 14.9021 4.49138 15.0239 4.44161C15.1458 4.39185 15.2762 4.36662 15.4078 4.36738ZM5.30784 14.0474L11.8878 7.46738L13.4778 9.05739L6.89784 15.6374L4.77784 16.1674L5.30784 14.0474ZM20.4078 20.5374C20.4078 20.8026 20.3025 21.057 20.1149 21.2445C19.9274 21.432 19.6731 21.5374 19.4078 21.5374H3.40784C3.14262 21.5374 2.88827 21.432 2.70073 21.2445C2.5132 21.057 2.40784 20.8026 2.40784 20.5374C2.40784 20.2722 2.5132 20.0178 2.70073 19.8303C2.88827 19.6427 3.14262 19.5374 3.40784 19.5374H19.4078C19.6731 19.5374 19.9274 19.6427 20.1149 19.8303C20.3025 20.0178 20.4078 20.2722 20.4078 20.5374ZM12.4078 15.5374H19.4078C19.6731 15.5374 19.9274 15.6427 20.1149 15.8303C20.3025 16.0178 20.4078 16.2722 20.4078 16.5374C20.4078 16.8026 20.3025 17.057 20.1149 17.2445C19.9274 17.432 19.6731 17.5374 19.4078 17.5374H12.4078C12.1426 17.5374 11.8883 17.432 11.7007 17.2445C11.5132 17.057 11.4078 16.8026 11.4078 16.5374C11.4078 16.2722 11.5132 16.0178 11.7007 15.8303C11.8883 15.6427 12.1426 15.5374 12.4078 15.5374Z"
    fill="#5B5B5B"
  />
</svg>
