<svg
  width="21"
  height="21"
  viewBox="0 0 21 21"
  fill="none"
  xmlns="http://www.w3.org/2000/svg"
>
<circle cx="10.5" cy="10.5" r="10" fill="#A5A5A5" stroke="#A5A5A5" />
<path
    d="M14.4485 13.4503C14.5808 13.5826 14.6551 13.762 14.6551 13.9491C14.6551 14.1362 14.5808 14.3156 14.4485 14.4479C14.3162 14.5802 14.1368 14.6545 13.9497 14.6545C13.7626 14.6545 13.5832 14.5802 13.4509 14.4479L10.4369 11.4269L7.42299 14.4479C7.29069 14.5802 7.11127 14.6545 6.92418 14.6545C6.73709 14.6545 6.55766 14.5802 6.42536 14.4479C6.29307 14.3156 6.21875 14.1362 6.21875 13.9491C6.21875 13.762 6.29307 13.5826 6.42536 13.4503L9.44634 10.4363L6.42536 7.42238C6.29307 7.29008 6.21875 7.11066 6.21875 6.92357C6.21875 6.73648 6.29307 6.55705 6.42536 6.42475C6.55766 6.29246 6.73709 6.21814 6.92418 6.21814C7.11127 6.21814 7.29069 6.29246 7.42299 6.42475L10.4369 9.44572L13.4509 6.42475C13.5832 6.29246 13.7626 6.21814 13.9497 6.21814C14.1368 6.21814 14.3162 6.29246 14.4485 6.42475C14.5808 6.55705 14.6551 6.73648 14.6551 6.92357C14.6551 7.11066 14.5808 7.29008 14.4485 7.42238L11.4275 10.4363L14.4485 13.4503Z"
    fill="white"
  />
</svg>
