<svg
  width="182"
  height="135"
  viewBox="0 0 182 135"
  fill="none"
  xmlns="http://www.w3.org/2000/svg"
>
<g clip-path="url(#clip0_567_29530)">
<path
      d="M80.9491 119.697C81.8443 121.155 82.7628 122.698 82.8794 124.41C83.0193 126.469 81.9282 128.477 80.371 129.822C78.8137 131.167 76.8461 131.924 74.8599 132.432C69.9923 133.674 64.7843 133.528 59.9959 132.014C58.1542 131.431 56.3312 130.622 54.9185 129.291C53.5058 127.96 52.5499 126.032 52.7411 124.09C52.9276 122.18 54.2005 120.506 55.7764 119.429C57.3523 118.352 59.2126 117.788 61.059 117.327C64.4626 116.481 67.9874 115.926 71.475 116.293C74.9625 116.66 79.3546 117.106 80.9445 119.697H80.9491Z"
      fill="#D85F35"
    />
<path
      d="M55.1391 120.37C56.5752 121.945 58.0392 123.568 58.8131 125.562C59.5871 127.556 59.5265 130.025 58.1044 131.609C57.0787 132.752 55.5354 133.265 54.0341 133.58C49.2551 134.586 44.1776 134.069 39.697 132.122C36.354 130.669 33.1881 128.209 32.0505 124.72C31.3045 122.425 31.6122 119.66 33.3047 117.957C34.3398 116.913 35.7665 116.363 37.1839 116.011C43.2451 114.506 50.7191 115.531 55.1344 120.375L55.1391 120.37Z"
      fill="#FF7E3E"
    />
<path
      d="M94.2475 15.975C94.4293 8.37078 87.5242 2.05977 80.1435 0.484372C74.362 -0.747732 68.0117 0.362102 63.3072 3.96436C58.6028 7.56662 55.7867 13.7412 56.6819 19.6337C57.2134 23.1513 58.9478 26.3444 60.1181 29.6975C61.2884 33.0505 61.8525 36.9396 60.1228 40.0387C57.9874 43.8666 53.213 45.1599 48.9095 45.8277C36.1436 47.8028 23.07 47.4172 10.3414 45.2492C8.4578 44.9295 6.37833 44.6003 4.75113 45.6113C3.95384 46.1051 3.36171 46.8717 2.86282 47.6711C-0.205092 52.5666 -0.111842 59.2868 3.09128 64.0929C1.39414 64.4879 0.690104 66.5148 0.415018 68.2501C-1.87426 82.6685 5.76289 97.1951 16.4493 107.047C33.6912 122.933 59.9689 128.755 81.6448 119.994C88.5965 117.182 95.0634 112.94 99.8937 107.17C104.724 101.399 107.839 94.0396 107.923 86.4871C108.025 77.0629 103.591 68.283 99.6233 59.7523C95.6602 51.2169 91.9862 41.8633 93.7206 32.6037"
      fill="#F7F3F0"
    />
<path
      d="M19.6565 67.681C18.3323 70.3569 18.2671 73.6346 19.484 76.3622C20.7009 79.0897 23.1813 81.2154 26.0441 81.9866C24.9251 83.2939 24.6174 85.1656 24.9204 86.868C25.2235 88.5704 26.0814 90.1175 27.0698 91.5284C30.3009 96.1464 35.8912 99.7722 41.337 98.4366"
      stroke="#E8DEDA"
      stroke-width="2.83"
      stroke-linecap="round"
      stroke-linejoin="round"
    />
<path
      d="M98.7146 18.9189C112.954 13.7036 128.009 10.7504 142.901 10.5623C143.689 12.2834 143.997 14.2209 143.773 16.102C128.438 16.671 112.8 17.2965 98.4208 22.6999C97.9499 22.8786 97.437 23.062 96.9615 22.8974C95.8705 22.5212 95.67 20.5884 94.5137 20.626C95.6886 20.0476 96.8962 19.582 98.7099 18.9189H98.7146Z"
      fill="#6FC423"
    />
<path
      d="M87.5003 26.4996C79.2896 30.9625 71.5359 36.2812 64.4023 42.3383C65.5353 43.3494 66.3932 44.6661 66.8688 46.1145C74.4127 39.7283 82.1897 33.6289 90.1859 27.8305C89.5005 27.4449 88.8104 27.064 87.5003 26.4996Z"
      fill="#6FC423"
    />
<path
      d="M142.122 23.5276C142.034 24.9525 141.735 26.6784 140.411 27.1674C139.796 27.3932 139.115 27.2756 138.472 27.158C124.629 24.6468 110.334 24.6656 96.4954 27.2098C96.1597 24.9948 95.4463 22.8363 94.3926 20.8611C109.63 15.928 126.317 17.9549 142.122 23.5276Z"
      fill="#20A811"
    />
<path
      d="M94.7226 27.854C84.9314 35.0021 76.7067 44.0688 68.5521 53.0698C67.6056 52.0305 66.4353 51.1981 65.1484 50.6479C73.471 41.4447 82.5954 32.9752 92.382 25.3757C92.7923 26.3256 93.445 27.1721 94.7226 27.8493V27.854Z"
      fill="#20A811"
    />
<path
      d="M97.3955 122.547C97.1391 122.51 96.7708 122.491 96.3372 122.566C95.9035 122.641 95.5632 122.792 95.3301 122.914C95.1202 122.416 94.4488 122.326 94.0152 122.608C93.5816 122.895 93.3438 123.422 93.1713 123.939C92.2528 126.7 92.6025 129.921 94.0898 132.376C94.2064 132.569 94.3369 132.762 94.5328 132.856C94.8405 133.001 95.2135 132.823 95.4233 132.536C95.6331 132.249 95.717 131.882 95.7916 131.529C96.3465 132.202 97.2044 132.461 97.9737 132.197C99.0367 131.83 99.3258 130.669 99.3398 130.598C99.4843 130.424 100.944 128.647 100.463 126.215C99.9319 123.511 97.5074 122.585 97.3955 122.547Z"
      fill="#D3B572"
    />
<path
      d="M95.707 125.03C96.066 127.001 96.1686 129.018 96.0101 131.012"
      stroke="#C9A255"
      stroke-width="2.83"
      stroke-linecap="round"
      stroke-linejoin="round"
    />
<path
      d="M99.4046 132.061C99.9827 128.656 99.1808 125.115 97.0547 122.406C97.9965 121.071 99.9221 121.056 101.545 121.122C109.434 121.433 117.257 120.398 125.053 118.964C128.522 121.028 130.69 123.812 131.408 126.375C120.577 126.775 109.685 128.6 99.4046 132.061Z"
      fill="#F7F3F0"
    />
<path
      d="M170.377 118.719C163.878 118.94 157.77 119.66 151.736 120.803C145.428 119.298 137.94 118.291 131.385 117.732C144.197 115.141 156.982 112.187 169.934 113.114C170.428 114.934 170.582 116.848 170.377 118.719Z"
      fill="#6FC423"
    />
<path
      d="M180.936 134.233C180.684 134.563 180.395 134.911 179.994 134.986C179.673 135.047 179.351 134.92 179.048 134.793C164.002 128.6 147.637 125.778 131.402 126.375C130.684 123.812 128.516 121.028 125.047 118.964C127.159 118.578 129.271 118.16 131.383 117.732C137.939 118.291 145.427 119.298 151.735 120.803C158.416 121.785 164.799 124.165 171.126 126.53C174.003 127.607 176.88 128.684 179.756 129.761C180.633 130.086 181.617 130.518 181.911 131.417C182.237 132.404 181.565 133.415 180.936 134.233Z"
      fill="#20A811"
    />
<path
      d="M91.2582 17.5457C91.9576 16.2619 93.706 15.8904 95.0861 16.3418C96.4662 16.7933 97.5432 17.8702 98.527 18.9424C99.5108 20.0146 100.481 21.1574 101.777 21.8205C102.635 22.2578 103.595 22.4647 104.467 22.8739C105.339 23.283 106.173 23.9837 106.346 24.9383C106.519 25.8742 106.001 26.8241 105.278 27.4308C104.556 28.0374 103.642 28.3572 102.751 28.6629C98.9839 29.9561 95.1234 31.16 91.1463 31.2446C89.7009 31.2729 88.2229 31.1459 86.9081 30.5487C85.5933 29.9514 84.4557 28.8134 84.1386 27.3931C83.9474 26.5279 84.064 25.6202 84.3018 24.769C85.1317 21.8158 87.5096 19.3563 91.2629 17.5363L91.2582 17.5457Z"
      fill="#FF7E3E"
    />
<path
      d="M75.8077 19.5773C76.7424 19.5773 77.5002 18.813 77.5002 17.8702C77.5002 16.9274 76.7424 16.1631 75.8077 16.1631C74.873 16.1631 74.1152 16.9274 74.1152 17.8702C74.1152 18.813 74.873 19.5773 75.8077 19.5773Z"
      fill="#514C4B"
    />
</g>
<defs>
<clipPath id="clip0_567_29530">
<rect width="182" height="135" fill="white" />
</clipPath>
</defs>
</svg>
