<svg
  width="486"
  height="408"
  viewBox="0 0 486 408"
  fill="none"
  xmlns="http://www.w3.org/2000/svg"
>
<g clip-path="url(#clip0_559_9989)">
<path
      d="M281.913 299.418C278.802 303.798 272.735 304.656 267.372 304.828C251.405 305.326 234.939 302.887 221.137 294.867C218.353 293.252 215.637 291.363 213.833 288.701C212.028 286.038 211.255 282.483 212.595 279.563C214.022 276.437 217.391 274.737 220.587 273.518C232.086 269.155 244.788 267.987 256.888 270.22C263.625 271.457 270.397 273.861 275.279 278.653C280.16 283.445 282.738 291.019 281.93 299.401L281.913 299.418Z"
      fill="#FF7E3E"
    />
<path
      d="M346.231 293.681C347.004 298.267 342.707 302.046 338.685 304.364C320.673 314.756 298.139 317.006 278.425 310.359C275.709 309.448 272.788 308.109 271.722 305.464C270.553 302.527 272.203 299.212 274.3 296.842C279.663 290.779 287.827 287.962 295.802 286.554C309.621 284.115 324.059 285.214 337.345 289.714C340.559 290.796 343.859 292.204 346.214 293.681H346.231Z"
      fill="#FF7E3E"
    />
<path
      d="M189.822 120.846C191.575 125.758 189.994 131.306 187.175 135.703C184.356 140.1 180.455 143.638 177 147.537C159.864 166.807 154.484 196.263 165.33 219.656C170.795 231.438 179.767 245.47 188.963 254.625C208.797 274.359 231.313 288.598 258.367 295.794C271.859 299.384 285.953 299.985 299.909 299.624C335.007 298.697 370.499 295.468 400.75 277.674C421.427 265.514 438.253 248.012 444.561 240.266C454.204 228.415 462.763 214.022 470.016 198.479C474.399 189.084 478.713 172.097 469.896 157.069C477.544 149.031 483.491 139.138 485.33 128.197C488.613 108.703 479.469 97.3503 469.896 91.7167C464.671 88.6424 454.96 88.8313 448.893 88.9859C434.575 89.3637 421.031 95.2549 406.954 97.9342C377.254 103.619 346.127 96.9037 315.911 95.7358C303.227 95.2377 294.066 96.1136 281.175 97.8827L279.765 92.0602C279.129 83.0947 279.439 74.112 279.851 65.1465C280.934 41.9255 259.381 18.5327 236.246 16.1796C213.111 13.8266 196.903 25.9868 184.545 43.059C175.419 55.6485 174.766 79.4879 180.609 89.192L181.984 105.302L189.805 120.846"
      fill="#F7F3F0"
    />
<path
      d="M439.027 149.099C440.986 160.573 436.999 172.887 428.697 181.028C420.395 189.17 408.003 192.948 396.573 190.801C401.231 196.435 401.661 204.782 398.928 211.566C396.195 218.35 390.747 223.726 384.714 227.866C375.157 234.409 363.126 238.308 351.851 235.612C350.579 235.302 349.152 234.736 348.809 233.482"
      stroke="#E8DEDA"
      stroke-width="2.83"
      stroke-linecap="round"
      stroke-linejoin="round"
    />
<path
      d="M180.627 89.1919C188.173 84.1251 199.207 85.1041 205.721 91.4247C208.145 93.7605 210.104 96.8005 213.232 98.0372C214.642 98.5868 216.429 98.9475 216.91 100.373C217.409 101.884 216.017 103.293 214.745 104.255C203.16 113.031 190.235 120.056 176.571 125.037C173.924 125.999 171.191 126.892 168.372 126.789C165.554 126.686 162.632 125.38 161.308 122.907C159.882 120.245 160.638 116.844 162.305 114.319C163.972 111.795 166.413 109.905 168.665 107.896C173.735 103.379 178.272 97.5734 180.627 89.2091V89.1919Z"
      fill="#FF7E3E"
    />
<path
      d="M92.3162 370.18C87.9849 364.409 79.6832 363.86 72.4643 363.825C50.825 363.722 27.7419 364.032 9.78073 376.089C6.65257 378.184 3.67909 380.692 1.80563 383.955C-0.0678329 387.218 -0.686591 391.392 0.929055 394.793C2.85408 398.829 7.52914 400.976 11.9979 401.13C16.4668 401.285 20.8152 399.808 25.0262 398.279C37.7623 393.642 50.2922 388.403 62.547 382.598C71.6221 378.287 81.4535 373.53 91.2677 375.642C91.5255 374.251 91.7833 372.86 92.2818 370.198L92.3162 370.18Z"
      fill="#4D7A35"
    />
<path
      d="M81.282 349.261C60.7943 342.339 38.6565 336.774 17.739 342.236C12.428 343.627 7.15139 345.809 3.3529 349.742C1.41069 351.751 -0.136203 354.843 1.29038 357.247C1.87476 358.243 2.88884 358.93 3.88572 359.514C9.88424 362.984 16.8796 364.22 23.7719 365.028C45.5831 367.587 67.824 366.556 89.2915 361.953L89.9962 352.232C86.7993 351.717 84.1524 350.223 81.282 349.261Z"
      fill="#58AA2D"
    />
<path
      d="M92.3163 401.13C81.6084 397.455 79.0646 380.829 78.8239 369.511C78.5833 357.677 79.9411 344.555 88.6209 336.5C97.5414 328.221 111.171 328.049 123.254 329.526C147.351 332.446 170.899 339.935 192.263 351.476C197.316 354.207 202.352 357.247 206.047 361.644C209.743 366.041 211.908 372.087 210.43 377.634C208.213 385.913 196.525 393.693 188.464 396.648C157.423 408.018 129.425 413.874 92.3335 401.13H92.3163Z"
      fill="#FF7E3E"
    />
<path
      d="M131.142 333.425C125.47 336.723 123.356 340.175 120.967 344.915C118.578 349.656 118.32 356.612 119.214 361.85"
      stroke="#AA5217"
      stroke-width="2.83"
      stroke-linecap="round"
      stroke-linejoin="round"
    />
<path
      d="M159.71 340.312C150.342 345.671 144.086 356.079 143.742 366.866"
      stroke="#AA5217"
      stroke-width="2.83"
      stroke-linecap="round"
      stroke-linejoin="round"
    />
<path
      d="M229.646 79.7969C231.981 79.7969 233.874 77.9053 233.874 75.5718C233.874 73.2383 231.981 71.3467 229.646 71.3467C227.311 71.3467 225.418 73.2383 225.418 75.5718C225.418 77.9053 227.311 79.7969 229.646 79.7969Z"
      fill="#514C4B"
    />
<path
      d="M294.289 9.32662C295.956 5.63392 300.322 3.36678 304.309 4.15685C308.297 4.94691 311.477 8.69113 311.614 12.7445C311.752 16.7979 308.795 20.7482 304.877 21.7787C303.622 22.1051 302.213 22.2253 301.319 23.1699C300.786 23.7367 300.545 24.5096 300.374 25.2825C299.119 30.8301 300.58 36.9446 304.224 41.3243"
      stroke="#FF7E3E"
      stroke-width="6"
      stroke-linecap="round"
      stroke-linejoin="round"
    />
<path
      d="M312.5 56C313.328 56 314 55.3284 314 54.5C314 53.6716 313.328 53 312.5 53C311.672 53 311 53.6716 311 54.5C311 55.3284 311.672 56 312.5 56Z"
      fill="#FF7E3E"
      stroke="#FF7E3E"
      stroke-width="4.25"
      stroke-linecap="round"
      stroke-linejoin="round"
    />
</g>
<defs>
<clipPath id="clip0_559_9989">
<rect width="486" height="408" fill="white" />
</clipPath>
</defs>
</svg>
