<svg
  width="320"
  height="242"
  viewBox="0 0 320 242"
  fill="none"
  xmlns="http://www.w3.org/2000/svg"
>
<path
    d="M183.664 197.055C181.59 199.953 177.545 200.521 173.97 200.635C163.325 200.965 152.347 199.351 143.146 194.043C141.29 192.974 139.48 191.724 138.276 189.962C137.073 188.201 136.558 185.848 137.451 183.916C138.403 181.847 140.648 180.722 142.78 179.915C150.445 177.028 158.913 176.255 166.98 177.733C171.472 178.551 175.986 180.142 179.241 183.313C182.495 186.484 184.214 191.497 183.675 197.043L183.664 197.055Z"
    fill="#5C5C5C"
  />
<path
    d="M226.822 194.348C227.337 197.383 224.473 199.883 221.792 201.418C209.783 208.294 194.761 209.783 181.618 205.384C179.808 204.782 177.86 203.896 177.149 202.145C176.37 200.202 177.47 198.008 178.868 196.439C182.443 192.427 187.886 190.563 193.203 189.631C202.415 188.017 212.04 188.745 220.898 191.722C223.04 192.439 225.241 193.371 226.81 194.348H226.822Z"
    fill="#787878"
  />
<path
    d="M122.549 79.9717C123.718 83.2224 122.664 86.8936 120.785 89.8033C118.906 92.713 116.304 95.0544 114.001 97.6345C102.577 110.387 98.9907 129.88 106.221 145.36C109.865 153.158 115.846 162.444 121.976 168.502C135.199 181.561 150.21 190.984 168.246 195.746C177.241 198.122 186.637 198.519 195.941 198.281C219.339 197.667 243.001 195.53 263.168 183.755C276.952 175.708 288.17 164.126 292.375 159C298.804 151.157 304.51 141.632 309.345 131.346C312.267 125.129 315.143 113.888 309.265 103.943C314.364 98.6234 318.329 92.0765 319.555 84.8364C321.743 71.9359 315.648 64.423 309.265 60.6949C305.782 58.6604 299.308 58.7854 295.263 58.8877C285.718 59.1378 276.689 63.0363 267.304 64.8094C247.504 68.5716 226.753 64.1275 206.609 63.3546C198.152 63.025 192.045 63.6046 183.451 64.7753L182.512 60.9223C182.088 54.9892 182.294 49.0448 182.569 43.1117C183.291 27.7448 168.922 12.2643 153.499 10.7072C138.076 9.15001 127.27 17.1972 119.032 28.495C112.947 36.8263 112.512 52.6023 116.408 59.0241L117.324 69.6855L122.538 79.9717"
    fill="#EBEBEB"
  />
<path
    d="M288.685 98.6688C289.991 106.261 287.333 114.411 281.798 119.798C276.264 125.186 268.002 127.686 260.382 126.266C263.487 129.994 263.774 135.517 261.952 140.007C260.13 144.497 256.498 148.054 252.476 150.793C246.105 155.124 238.084 157.704 230.567 155.92C229.719 155.715 228.768 155.34 228.539 154.51"
    stroke="#D8D8D8"
    stroke-width="2.83"
    stroke-linecap="round"
    stroke-linejoin="round"
  />
<path
    d="M116.417 59.0241C121.448 55.6711 128.804 56.319 133.147 60.5017C134.762 62.0475 136.069 64.0593 138.154 64.8776C139.094 65.2413 140.285 65.48 140.606 66.4234C140.939 67.4236 140.01 68.3556 139.163 68.9921C131.44 74.8002 122.823 79.4489 113.713 82.745C111.949 83.3815 110.127 83.9725 108.248 83.9043C106.368 83.8362 104.42 82.9723 103.538 81.3356C102.587 79.5739 103.091 77.3234 104.203 75.6526C105.314 73.9818 106.941 72.7315 108.442 71.4017C111.823 68.4124 114.848 64.5707 116.417 59.0355V59.0241Z"
    fill="#787878"
  />
<path
    d="M61.8937 216.374C59.0062 212.555 53.4717 212.192 48.6592 212.169C34.2329 212.101 18.8442 212.305 6.8701 220.284C4.78465 221.671 2.80234 223.33 1.55336 225.49C0.304387 227.65 -0.108118 230.412 0.968979 232.662C2.25233 235.333 5.36904 236.754 8.34824 236.856C11.3274 236.958 14.2264 235.981 17.0338 234.969C25.5245 231.9 33.8777 228.434 42.0476 224.592C48.0977 221.739 54.652 218.591 61.1948 219.989C61.3666 219.068 61.5385 218.148 61.8708 216.386L61.8937 216.374Z"
    fill="#A4A4A4"
  />
<path
    d="M54.5383 202.531C40.8798 197.95 26.1213 194.267 12.1763 197.882C8.63561 198.802 5.11785 200.246 2.58553 202.849C1.29072 204.179 0.259459 206.224 1.21051 207.816C1.6001 208.475 2.27615 208.93 2.94074 209.316C6.93975 211.612 11.6034 212.43 16.1982 212.965C30.739 214.658 45.5663 213.976 59.8779 210.93L60.3477 204.497C58.2164 204.156 56.4518 203.167 54.5383 202.531Z"
    fill="#CCCCCC"
  />
<path
    d="M61.8945 236.856C54.7558 234.424 53.06 223.421 52.8996 215.931C52.7391 208.1 53.6444 199.416 59.4309 194.086C65.3778 188.607 74.4644 188.494 82.5197 189.471C98.5845 191.403 114.283 196.359 128.526 203.997C131.894 205.804 135.252 207.816 137.715 210.726C140.179 213.635 141.623 217.636 140.637 221.307C139.159 226.786 131.367 231.935 125.993 233.89C105.299 241.414 86.6333 245.29 61.9059 236.856H61.8945Z"
    fill="#AAAAAA"
  />
<path
    d="M87.7778 192.051C83.9965 194.233 82.5871 196.518 80.9944 199.655C79.4016 202.792 79.2298 207.395 79.8256 210.862"
    stroke="#969696"
    stroke-width="2.83"
    stroke-linecap="round"
    stroke-linejoin="round"
  />
<path
    d="M106.823 196.609C100.578 200.155 96.4069 207.043 96.1777 214.181"
    stroke="#969696"
    stroke-width="2.83"
    stroke-linecap="round"
    stroke-linejoin="round"
  />
<path
    d="M149.098 52.8069C150.655 52.8069 151.917 51.5551 151.917 50.0109C151.917 48.4667 150.655 47.2148 149.098 47.2148C147.541 47.2148 146.279 48.4667 146.279 50.0109C146.279 51.5551 147.541 52.8069 149.098 52.8069Z"
    fill="#514C4B"
  />
<path
    d="M192.193 6.17206C193.305 3.72837 196.215 2.22805 198.874 2.75089C201.532 3.27373 203.652 5.75152 203.743 8.4339C203.835 11.1163 201.864 13.7305 199.252 14.4124C198.415 14.6284 197.476 14.708 196.88 15.3331C196.525 15.7082 196.364 16.2196 196.25 16.7311C195.413 20.4023 196.387 24.4486 198.816 27.347"
    stroke="#C1C1C1"
    stroke-width="6"
    stroke-linecap="round"
    stroke-linejoin="round"
  />
<path
    d="M205.191 39.3751C206.358 39.3751 207.304 38.4307 207.304 37.2657C207.304 36.1008 206.358 35.1564 205.191 35.1564C204.024 35.1564 203.078 36.1008 203.078 37.2657C203.078 38.4307 204.024 39.3751 205.191 39.3751Z"
    fill="#C1C1C1"
    stroke="#C1C1C1"
    stroke-width="4.25"
    stroke-linecap="round"
    stroke-linejoin="round"
  />
</svg>
