<svg
  width="320"
  height="235"
  viewBox="0 0 320 235"
  fill="none"
  xmlns="http://www.w3.org/2000/svg"
>
<g clip-path="url(#clip0_567_29511)">
<path
      d="M142.329 208.362C143.903 210.9 145.518 213.585 145.723 216.565C145.969 220.15 144.05 223.646 141.312 225.987C138.574 228.328 135.115 229.646 131.622 230.53C123.064 232.692 113.907 232.438 105.488 229.802C102.25 228.787 99.0445 227.379 96.5606 225.062C94.0766 222.745 92.3961 219.389 92.7322 216.008C93.0601 212.685 95.2981 209.77 98.0689 207.896C100.84 206.021 104.111 205.039 107.357 204.237C113.341 202.763 119.539 201.797 125.671 202.436C131.803 203.074 139.525 203.852 142.321 208.362H142.329Z"
      fill="#5C5C5C"
    />
<path
      d="M96.9476 209.533C99.4725 212.275 102.047 215.099 103.407 218.57C104.768 222.041 104.662 226.339 102.161 229.098C100.358 231.087 97.6444 231.979 95.0047 232.528C86.602 234.28 77.6747 233.379 69.7966 229.99C63.9188 227.461 58.3525 223.179 56.3523 217.105C55.0406 213.11 55.5817 208.297 58.5575 205.333C60.3774 203.516 62.8859 202.558 65.378 201.944C76.0351 199.325 89.1761 201.109 96.9394 209.541L96.9476 209.533Z"
      fill="#787878"
    />
<path
      d="M165.71 27.8085C166.029 14.5715 153.889 3.58564 140.912 0.843281C130.746 -1.30149 119.581 0.630441 111.309 6.90104C103.038 13.1716 98.0864 23.9201 99.6603 34.1773C100.595 40.3006 103.644 45.859 105.702 51.6957C107.76 57.5324 108.752 64.3024 105.71 69.697C101.956 76.3606 93.5612 78.6118 85.9947 79.7742C63.5492 83.2124 40.5626 82.5411 18.1827 78.7673C14.8708 78.2106 11.2146 77.6376 8.35356 79.3976C6.95175 80.2572 5.91063 81.5915 5.03347 82.9832C-0.360666 91.505 -0.19671 103.203 5.43516 111.569C2.45117 112.257 1.21331 115.785 0.729638 118.806C-3.29547 143.905 10.1325 169.192 28.9218 186.342C59.2371 213.994 105.44 224.129 143.551 208.878C155.774 203.983 167.144 196.599 175.637 186.554C184.13 176.51 189.606 163.699 189.754 150.552C189.934 134.147 182.138 118.863 175.162 104.013C168.194 89.1555 161.734 72.8733 164.783 56.7547"
      fill="#EBEBEB"
    />
<path
      d="M34.5612 117.815C32.233 122.473 32.1183 128.179 34.2579 132.927C36.3975 137.675 40.7587 141.375 45.7922 142.717C43.8247 144.993 43.2836 148.251 43.8165 151.215C44.3494 154.178 45.8577 156.871 47.5957 159.327C53.2767 167.366 63.1059 173.678 72.6809 171.353"
      stroke="#D8D8D8"
      stroke-width="2.83"
      stroke-linecap="round"
      stroke-linejoin="round"
    />
<path
      d="M173.564 32.933C198.6 23.8546 225.071 18.7137 251.254 18.3862C252.64 21.3824 253.181 24.7551 252.787 28.0295C225.825 29.0201 198.329 30.1088 173.047 39.5147C172.219 39.8258 171.318 40.145 170.482 39.8585C168.563 39.2036 168.211 35.8391 166.178 35.9046C168.244 34.8977 170.367 34.0873 173.556 32.933H173.564Z"
      fill="#CCCCCC"
    />
<path
      d="M153.848 46.1292C139.412 53.8978 125.779 63.1564 113.236 73.7001C115.228 75.4601 116.737 77.7523 117.573 80.2736C130.837 69.1568 144.511 58.5394 158.57 48.4458C157.365 47.7746 156.152 47.1115 153.848 46.1292Z"
      fill="#CCCCCC"
    />
<path
      d="M249.883 40.9554C249.728 43.4358 249.203 46.4401 246.875 47.2915C245.793 47.6844 244.596 47.4798 243.465 47.2751C219.125 42.9037 193.991 42.9365 169.66 47.3652C169.07 43.5095 167.816 39.752 165.963 36.3139C192.753 27.7266 222.093 31.2548 249.883 40.9554Z"
      fill="#A4A4A4"
    />
<path
      d="M166.545 48.4867C149.33 60.9297 134.869 76.7126 120.531 92.3809C118.867 90.5717 116.809 89.1228 114.547 88.165C129.18 72.1447 145.223 57.4014 162.43 44.1726C163.151 45.8262 164.299 47.2997 166.545 48.4785V48.4867Z"
      fill="#A4A4A4"
    />
<path
      d="M171.243 213.323C170.792 213.258 170.145 213.225 169.382 213.356C168.62 213.487 168.022 213.749 167.612 213.962C167.243 213.094 166.062 212.938 165.3 213.43C164.538 213.929 164.12 214.846 163.816 215.746C162.201 220.552 162.816 226.159 165.431 230.432C165.636 230.768 165.866 231.104 166.21 231.267C166.751 231.521 167.407 231.21 167.776 230.711C168.145 230.211 168.292 229.573 168.423 228.959C169.399 230.129 170.907 230.58 172.26 230.121C174.129 229.483 174.637 227.461 174.662 227.338C174.916 227.035 177.482 223.941 176.638 219.708C175.703 215.001 171.44 213.389 171.243 213.323Z"
      fill="#C5C5C5"
    />
<path
      d="M168.275 217.646C168.907 221.076 169.087 224.587 168.808 228.058"
      stroke="#B3B3B3"
      stroke-width="2.83"
      stroke-linecap="round"
      stroke-linejoin="round"
    />
<path
      d="M174.776 229.884C175.793 223.957 174.383 217.793 170.645 213.077C172.3 210.753 175.686 210.728 178.539 210.843C192.41 211.383 206.165 209.582 219.872 207.085C225.971 210.679 229.783 215.525 231.046 219.987C212.002 220.682 192.852 223.859 174.776 229.884Z"
      fill="#EBEBEB"
    />
<path
      d="M299.562 206.66C288.134 207.044 277.395 208.297 266.787 210.286C255.696 207.666 242.53 205.915 231.004 204.94C253.531 200.43 276.01 195.289 298.783 196.902C299.652 200.07 299.923 203.401 299.562 206.66Z"
      fill="#CCCCCC"
    />
<path
      d="M318.13 233.666C317.687 234.239 317.179 234.844 316.474 234.975C315.908 235.082 315.343 234.861 314.81 234.64C288.356 223.859 259.581 218.947 231.037 219.987C229.774 215.525 225.962 210.679 219.863 207.085C223.577 206.414 227.29 205.685 231.004 204.94C242.53 205.915 255.696 207.666 266.787 210.286C278.535 211.997 289.757 216.139 300.882 220.257C305.94 222.131 310.998 224.006 316.056 225.881C317.597 226.445 319.327 227.199 319.843 228.762C320.417 230.481 319.237 232.241 318.13 233.666Z"
      fill="#A4A4A4"
    />
<path
      d="M160.456 30.5426C161.685 28.3077 164.76 27.661 167.186 28.4469C169.613 29.2328 171.506 31.1074 173.236 32.9738C174.966 34.8403 176.671 36.8295 178.95 37.9838C180.458 38.7451 182.147 39.1053 183.68 39.8175C185.213 40.5297 186.68 41.7494 186.984 43.4112C187.287 45.0402 186.377 46.6938 185.106 47.7499C183.836 48.8059 182.229 49.3625 180.663 49.8946C174.039 52.1458 167.252 54.2415 160.259 54.3888C157.718 54.4379 155.119 54.2169 152.807 53.1773C150.495 52.1376 148.495 50.1566 147.938 47.6844C147.602 46.1781 147.807 44.5982 148.225 43.1165C149.684 37.9756 153.865 33.6942 160.464 30.5262L160.456 30.5426Z"
      fill="#787878"
    />
<path
      d="M133.288 34.0791C134.932 34.0791 136.264 32.7487 136.264 31.1076C136.264 29.4664 134.932 28.136 133.288 28.136C131.645 28.136 130.312 29.4664 130.312 31.1076C130.312 32.7487 131.645 34.0791 133.288 34.0791Z"
      fill="#514C4B"
    />
</g>
<defs>
<clipPath id="clip0_567_29511">
<rect width="320" height="235" fill="white" />
</clipPath>
</defs>
</svg>
