<svg
  width="319"
  height="356"
  viewBox="0 0 319 356"
  fill="none"
  xmlns="http://www.w3.org/2000/svg"
>
<g clip-path="url(#clip0_559_10006)">
<path
      d="M115.96 309.709C110.766 319.055 114.895 330.141 124.167 335.438C129.672 338.579 136.711 339.851 143.723 340.916C161.487 343.616 180.653 337.904 182.393 326.532C183.926 316.459 174.16 303.27 154.475 300.777C153.436 300.622 152.371 300.518 151.28 300.466C144.813 299.272 139.983 294.65 139.983 289.146V277.541H120.167V296.909C120.081 300.665 118.669 304.931 115.934 309.709H115.96Z"
      fill="#D85F35"
    />
<path
      d="M170.212 324.144C165.018 333.49 169.147 344.576 178.419 349.873C183.924 353.014 190.962 354.286 197.975 355.351C215.739 358.051 234.905 352.339 236.645 340.968C238.177 330.894 228.412 317.705 208.727 315.213C207.688 315.057 206.623 314.953 205.532 314.901C199.065 313.707 194.235 309.085 194.235 303.581V291.976H174.419V311.344C174.332 315.1 172.921 319.367 170.186 324.144H170.212Z"
      fill="#FF7E3E"
    />
<path
      d="M315.96 23.9376C317.181 24.4569 318.375 25.755 318.687 26.5858C321.05 32.6091 309.26 43.799 299.624 50.056C284.016 60.1815 269.81 73.4224 269.576 73.5522L273.42 16.0709C273.42 16.0709 270.849 18.3297 287.626 21.6529C303.182 24.7425 307.727 20.4326 315.934 23.9636L315.96 23.9376Z"
      fill="#FF7E3E"
    />
<path
      d="M271.161 140.406C270.486 139.004 267.966 133.967 266.226 126.698C264.642 119.999 264.434 114.366 264.46 110.912V104.084C265.032 89.7789 269.291 76.9274 275.862 67.5548C280.822 60.6488 283.731 52.3148 283.731 43.3317C283.731 19.3941 263.084 0 237.607 0C212.129 0 192.807 18.1479 191.508 40.995H191.456V94.4522C191.586 99.9563 191.093 108.602 187.457 118.338L187.379 118.546C183.873 127.788 177.328 135.629 169.018 141.003C155.565 149.753 143.41 155.153 134.45 158.502C127.412 161.15 111.544 166.55 95.1564 167.849C88.9754 168.342 82.3009 168.264 82.3009 168.264C60.9528 167.926 61.4982 166.473 41.9162 160.423C26.905 155.776 7.01135 161.124 1.73927 175.663C-4.26 192.228 5.55698 206.04 25.0611 215.724C22.5419 221.929 21.1914 228.445 21.1914 235.144C21.1914 278.995 78.4572 314.512 149.15 314.512C203.689 314.512 250.306 293.326 268.694 263.495C268.694 263.443 268.746 263.417 268.772 263.365C282.25 246.334 285.003 229.666 286.12 207.961C288.068 170.523 274.485 147.364 271.161 140.406Z"
      fill="#F7F3F0"
    />
<path
      d="M101.311 228.316C103.284 246.438 113.88 252.643 118.841 255.265C128.606 260.406 144.812 257.472 144.812 257.472C144.812 257.472 150.915 266.922 160.472 270.427C166.497 272.634 181.612 277.645 199.299 263.677"
      stroke="#E8DEDA"
      stroke-width="2.83"
      stroke-linecap="round"
      stroke-linejoin="round"
    />
<path
      d="M246.93 38.9181C249.153 38.9181 250.955 37.1164 250.955 34.8938C250.955 32.6713 249.153 30.8696 246.93 30.8696C244.707 30.8696 242.904 32.6713 242.904 34.8938C242.904 37.1164 244.707 38.9181 246.93 38.9181Z"
      fill="#514C4B"
    />
<path
      d="M148.137 186.152C176.866 186.152 200.156 167.763 200.156 145.079C200.156 122.395 176.866 104.006 148.137 104.006C119.407 104.006 96.1172 122.395 96.1172 145.079C96.1172 167.763 119.407 186.152 148.137 186.152Z"
      fill="#FF991D"
    />
<path
      d="M146.993 113.716L156.681 111.717C157.07 111.639 157.356 112.237 157.174 112.782L156.862 113.716C156.706 114.21 156.94 114.781 157.278 114.781L162.939 114.963C163.537 114.963 163.589 116.339 162.965 116.443L161.589 116.65C161.044 116.728 160.992 117.896 161.511 118.104C162.082 118.312 161.953 119.584 161.381 119.558L152.317 118.935C152.317 118.935 152.188 118.935 152.136 118.987L147.071 121.843C147.071 121.843 146.838 121.895 146.734 121.843L141.669 118.987C141.669 118.987 141.54 118.935 141.488 118.935L132.424 119.558C131.852 119.61 131.723 118.312 132.294 118.104C132.813 117.896 132.761 116.728 132.216 116.65L130.84 116.443C130.242 116.339 130.268 114.989 130.865 114.963L136.527 114.781C136.891 114.781 137.098 114.21 136.943 113.716L136.631 112.782C136.449 112.263 136.735 111.639 137.124 111.717L146.812 113.716C146.812 113.716 146.89 113.716 146.941 113.716H146.993Z"
      fill="#00A000"
    />
</g>
<defs>
<clipPath id="clip0_559_10006">
<rect width="319" height="356" fill="white" />
</clipPath>
</defs>
</svg>
