<svg
  width="203"
  height="203"
  viewBox="0 0 203 203"
  fill="none"
  xmlns="http://www.w3.org/2000/svg"
>
<g clip-path="url(#clip0_882_16802)">
<path
      d="M152.52 0H50C22.3858 0 0 22.3858 0 50V152.52C0 180.134 22.3858 202.52 50 202.52H152.52C180.134 202.52 202.52 180.134 202.52 152.52V50C202.52 22.3858 180.134 0 152.52 0Z"
      fill="#FFDD7C"
    />
<path
      d="M143.819 77.0101C140.369 84.4301 142.639 93.1901 145.639 100.81C148.639 108.43 152.409 116.18 151.809 124.34C150.969 135.74 141.709 144.87 131.589 150.17C115.399 158.64 95.3692 159.82 78.6192 152.52C61.8692 145.22 48.9292 129.34 45.9792 111.3C45.8292 110.37 45.7092 109.37 46.0992 108.51C46.4892 107.65 47.5892 107.04 48.4092 107.5C44.6592 103.68 44.8792 97.2701 47.3692 92.5401C48.2992 90.7801 49.5392 89.1201 51.2292 88.0601C55.1892 85.5901 60.2792 86.9801 64.8892 87.7401C76.9892 89.7201 89.2792 86.6301 101.149 83.5701C101.369 83.5101 101.599 83.4501 101.839 83.3901C105.999 82.2601 108.459 77.9701 107.339 73.8101C106.619 71.1201 105.929 68.4001 105.809 65.6801C105.369 55.8401 113.459 46.3801 123.239 45.2801C133.019 44.1801 143.119 52.6501 144.859 62.3401L143.819 77.0201V77.0101Z"
      fill="#F7F3F0"
    />
<path
      d="M144.77 62.73C147.51 65.14 150.74 66.98 154.2 68.13C155.26 68.48 156.5 68.9 156.87 69.96C157.3 71.18 156.28 72.41 155.24 73.17C152.77 74.97 149.72 75.83 146.67 76.1C143.62 76.37 140.56 76.07 137.52 75.74C136.95 75.68 136.35 75.6 135.92 75.22C135.31 74.68 135.29 73.74 135.41 72.93C136.05 68.25 139.46 64.04 144.77 62.72V62.73Z"
      fill="#FF7E3E"
    />
<path
      d="M88.0805 138.51C82.1505 137.22 75.8605 135.34 72.0905 130.59C70.9205 129.11 70.1905 126.65 71.7305 125.58C70.7205 126.27 69.3505 125.73 68.3105 125.1C61.6405 121.06 57.3205 113.41 57.3105 105.61"
      stroke="#E8DEDA"
      stroke-width="1.36"
      stroke-linecap="round"
      stroke-linejoin="round"
    />
<path
      d="M123.65 66.48C124.688 66.48 125.53 65.6383 125.53 64.6C125.53 63.5617 124.688 62.72 123.65 62.72C122.611 62.72 121.77 63.5617 121.77 64.6C121.77 65.6383 122.611 66.48 123.65 66.48Z"
      fill="#514C4B"
    />
</g>
<defs>
<clipPath id="clip0_882_16802">
<rect width="202.52" height="202.52" fill="white" />
</clipPath>
</defs>
</svg>
